<?xml version="1.0" standalone="no"?>
<!DOCTYPE svg PUBLIC "-//W3C//DTD SVG 20010904//EN"
 "http://www.w3.org/TR/2001/REC-SVG-20010904/DTD/svg10.dtd">
<svg version="1.0" xmlns="http://www.w3.org/2000/svg"
 width="300.000000pt" height="300.000000pt" viewBox="0 0 300.000000 300.000000"
 preserveAspectRatio="xMidYMid meet">
<metadata>
Created by potrace 1.11, written by Peter Selinger 2001-2013
</metadata>
<g transform="translate(0.000000,300.000000) scale(0.100000,-0.100000)"
fill="#000000" stroke="none">
<path d="M1400 2119 c-127 -18 -263 -91 -352 -187 -178 -193 -191 -419 -53
-927 23 -88 48 -183 55 -211 7 -32 21 -61 38 -76 56 -52 193 -77 335 -61 l77
9 0 -60 c0 -34 3 -79 7 -100 6 -38 5 -39 -18 -31 -88 29 -159 10 -212 -56 -49
-62 -46 -157 5 -193 19 -14 19 -15 -1 -79 -11 -36 -29 -84 -41 -106 l-20 -41
71 0 71 0 -7 108 c-12 177 17 263 103 310 l42 24 18 -22 c38 -48 150 -34 167
20 4 13 15 20 31 20 l25 0 -31 -45 c-55 -80 -73 -238 -44 -383 l7 -32 88 0
c50 0 89 4 89 10 0 5 -7 34 -15 65 -8 31 -11 63 -8 73 11 30 36 52 59 52 31 0
80 -84 89 -152 l7 -48 74 0 75 0 -6 37 c-10 59 -25 103 -57 168 l-29 60 16 59
c35 124 -20 219 -127 219 -20 0 -53 -10 -73 -22 -27 -15 -53 -21 -100 -21 -75
0 -73 -3 -77 123 l-3 78 117 39 c166 55 158 49 158 123 0 34 -5 100 -10 147
-5 47 -17 200 -25 340 -26 432 -78 596 -221 705 -70 53 -191 80 -294 64z m140
-131 c68 -32 96 -57 148 -132 98 -139 129 -280 142 -641 8 -229 20 -373 35
-412 3 -8 -34 -24 -103 -47 -161 -52 -243 -67 -393 -73 -159 -6 -227 7 -273
56 -27 28 -33 46 -57 166 -5 28 -14 59 -19 70 -4 11 -11 31 -14 45 -3 14 -12
54 -21 90 -43 173 -53 238 -54 345 -1 78 1 87 12 66 25 -49 80 -82 147 -88 77
-7 114 10 153 70 52 79 28 211 -46 258 -67 42 -202 9 -238 -58 -23 -43 -19
-16 7 48 41 100 105 179 182 224 18 11 32 23 32 26 0 14 37 18 170 16 123 -2
140 -4 190 -29z m-415 -361 c0 -26 -20 -25 -23 2 -3 16 1 22 10 19 7 -3 13
-12 13 -21z m227 -1211 c-26 -28 -42 -56 -46 -82 -11 -61 -22 -73 -37 -41 -9
21 -10 36 0 66 13 44 71 101 103 101 18 0 15 -5 -20 -44z"/>
<path d="M1452 1769 c-56 -28 -94 -84 -100 -149 -6 -66 1 -88 43 -133 45 -47
70 -57 150 -57 54 0 68 4 95 26 81 68 94 202 28 285 -41 51 -143 64 -216 28z
m108 -134 c0 -26 -14 -33 -25 -15 -9 14 1 40 15 40 5 0 10 -11 10 -25z"/>
<path d="M1235 1442 c-11 -2 -27 -10 -35 -17 -9 -8 -49 -28 -90 -45 -98 -42
-107 -50 -91 -89 7 -16 20 -32 29 -36 24 -9 116 13 201 49 69 29 76 34 79 62
5 49 -41 87 -93 76z m45 -32 c13 -8 12 -10 -3 -10 -11 0 -15 -5 -11 -11 3 -6
15 -9 25 -6 14 4 19 0 19 -13 0 -14 -18 -24 -75 -43 -71 -24 -75 -25 -75 -7 0
10 -5 22 -11 25 -17 11 -7 23 41 49 50 27 68 30 90 16z m-156 -66 c9 -3 16
-16 16 -29 0 -29 -27 -41 -35 -15 -3 10 -13 21 -23 25 -15 6 -15 8 3 15 11 5
21 9 22 9 1 1 8 -2 17 -5z m-49 -40 c11 -11 13 -20 6 -27 -13 -13 -37 -3 -51
22 -9 18 -8 21 9 21 11 0 27 -7 36 -16z"/>
<path d="M1370 1250 c-47 -11 -98 -19 -114 -20 l-28 0 4 -93 c5 -114 24 -153
82 -174 34 -11 47 -11 92 2 85 25 95 45 92 184 -3 136 4 130 -128 101z m104
-72 c13 -116 7 -135 -48 -148 l-36 -8 0 98 0 99 28 4 c15 2 32 5 38 6 6 0 14
-22 18 -51z m-104 -54 c0 -85 -2 -95 -17 -92 -25 5 -46 54 -51 120 -4 56 -4
57 24 61 16 2 32 5 37 6 4 0 7 -42 7 -95z"/>
<path d="M1740 800 c0 -19 20 -27 33 -13 8 7 -11 33 -24 33 -5 0 -9 -9 -9 -20z"/>
<path d="M1100 771 c0 -12 6 -21 16 -21 9 0 14 7 12 17 -5 25 -28 28 -28 4z"/>
<path d="M1582 759 c1 -13 8 -23 13 -21 15 3 12 35 -3 40 -9 3 -13 -3 -10 -19z"/>
<path d="M1407 744 c-14 -15 -6 -34 14 -34 14 0 19 5 17 17 -3 18 -20 27 -31
17z"/>
<path d="M1240 720 c0 -11 7 -20 15 -20 8 0 15 9 15 20 0 11 -7 20 -15 20 -8
0 -15 -9 -15 -20z"/>
</g>
</svg>
